<svg xmlns="http://www.w3.org/2000/svg" width="6.972" height="13.031" viewBox="0 0 6.972 13.031">
  <g id="arrow" transform="translate(-935.014 -3427.984)" fill="none">
    <path d="M935.014,3439.742l4.549-5.087-4.331-5.352,1.537-1.319,5,6.179-.439.377.657.51-5.333,5.965Z" stroke="none"/>
    <path d="M 936.5291137695312 3439.65283203125 L 940.5260009765625 3435.182373046875 L 940.4705810546875 3435.139404296875 L 940.3082275390625 3435.32080078125 L 936.4733276367188 3439.609619140625 L 936.5291137695312 3439.65283203125 M 940.3615112304688 3434.0517578125 L 940.3795166015625 3434.036376953125 L 936.6385498046875 3429.412841796875 L 936.6201171875 3429.4287109375 L 940.340087890625 3434.025146484375 L 940.3615112304688 3434.0517578125 M 936.6525268554688 3441.01513671875 L 935.0136108398438 3439.74169921875 L 939.562744140625 3434.654296875 L 935.2314453125 3429.302490234375 L 936.7686157226562 3427.98388671875 L 941.7681274414062 3434.16259765625 L 941.3287353515625 3434.53955078125 L 941.9859008789062 3435.0498046875 L 936.6525268554688 3441.01513671875 Z" stroke="none" fill="#fff"/>
  </g>
</svg>
