<svg xmlns="http://www.w3.org/2000/svg" width="334" height="73.997" viewBox="0 0 334 73.997">
  <g id="Group_74" data-name="Group 74" transform="translate(-388.64 -388.307)">
    <path id="Path_182" data-name="Path 182" d="M446.466,431.427a15.552,15.552,0,0,1-16.576,9.121l-22.247-3.571a1.967,1.967,0,0,1-1.693-1.944v-.063a1.98,1.98,0,0,1,1.819-1.9l19.085-1.721c1.286-.107,1.286-2.37,0-2.477L407.77,427.15a1.965,1.965,0,0,1,0-3.919l19.085-1.721c1.286-.107,1.286-2.37,0-2.477L407.77,417.31a1.968,1.968,0,0,1-1.819-1.895v-.067a1.967,1.967,0,0,1,1.693-1.943l22.247-3.574a15.546,15.546,0,0,1,16.576,9.121l15.61-2.883a37.01,37.01,0,1,0,.051,18.249Z" transform="translate(0 0)" fill="#fff"/>
    <path id="Path_183" data-name="Path 183" d="M451.333,418.377a13.119,13.119,0,0,1-1.228.758,11.667,11.667,0,0,1-1.974.837,18.88,18.88,0,0,1-2.8.68,21.631,21.631,0,0,1-3.662.281,16.771,16.771,0,0,1-5.635-.939,14.078,14.078,0,0,1-4.691-2.734,12.843,12.843,0,0,1-3.22-4.471,15.041,15.041,0,0,1-1.188-6.148,15.668,15.668,0,0,1,1.148-6.148,13.158,13.158,0,0,1,3.14-4.571,13.628,13.628,0,0,1,4.649-2.834,16.3,16.3,0,0,1,5.675-.979,19.411,19.411,0,0,1,4.749.48,9.849,9.849,0,0,1,2.918,1.178,4.511,4.511,0,0,1,1.49,1.436,2.624,2.624,0,0,1,.423,1.218,2.361,2.361,0,0,1-.222,1,4.146,4.146,0,0,1-.524.858,5.014,5.014,0,0,1-.622.659,2.879,2.879,0,0,1-.564.4,7.779,7.779,0,0,0-1.108-.958,9.324,9.324,0,0,0-1.669-.958,12.316,12.316,0,0,0-2.175-.74,10.856,10.856,0,0,0-2.617-.3,10.364,10.364,0,0,0-3.823.7,8.557,8.557,0,0,0-3.059,2.036,9.712,9.712,0,0,0-2.032,3.233,11.641,11.641,0,0,0-.746,4.293,10.923,10.923,0,0,0,.786,4.29,8.829,8.829,0,0,0,2.154,3.115,9.026,9.026,0,0,0,3.22,1.9,12.115,12.115,0,0,0,3.984.638,13.291,13.291,0,0,0,4.368-.638,12.611,12.611,0,0,0,2.675-1.2l2.135,3.634Z" transform="translate(51.257 5.014)" fill="#fff"/>
    <path id="Path_184" data-name="Path 184" d="M452.85,407q-.4-.08-1.51-.241a25.74,25.74,0,0,0-3.32-.158,7.478,7.478,0,0,0-3.984.816A2.861,2.861,0,0,0,442.786,410a3.281,3.281,0,0,0,.262,1.317,2.35,2.35,0,0,0,.907,1.018,5.019,5.019,0,0,0,1.749.638,14.539,14.539,0,0,0,2.759.22,24.347,24.347,0,0,0,2.937-.139c.725-.1,1.209-.167,1.45-.22Zm4.548,8.861q-.4.08-1.267.181t-2.032.2q-1.168.1-2.617.178t-3.019.081a20.152,20.152,0,0,1-5.133-.54,8.778,8.778,0,0,1-3.14-1.438,4.6,4.6,0,0,1-1.569-2.076,7.059,7.059,0,0,1-.423-2.414,7.6,7.6,0,0,1,.5-2.873,4.779,4.779,0,0,1,1.651-2.078,8.071,8.071,0,0,1,3-1.257,20.828,20.828,0,0,1,4.508-.42q1.529,0,2.9.1t2.053.181a5.166,5.166,0,0,0-.463-2.317,3.606,3.606,0,0,0-1.267-1.436,5.217,5.217,0,0,0-1.934-.719,14.438,14.438,0,0,0-2.495-.2,10.762,10.762,0,0,0-3.683.52,7.419,7.419,0,0,0-1.831.877,4.735,4.735,0,0,1-.664-.758,2.171,2.171,0,0,1-.423-1.357,2.213,2.213,0,0,1,.3-1.1,2.617,2.617,0,0,1,1.066-.96,6.976,6.976,0,0,1,2.053-.656,18.266,18.266,0,0,1,3.259-.241,18.923,18.923,0,0,1,4.328.459,9.569,9.569,0,0,1,3.36,1.456,6.7,6.7,0,0,1,2.193,2.637,9.061,9.061,0,0,1,.786,3.952Z" transform="translate(66.323 9.284)" fill="#fff"/>
    <path id="Path_185" data-name="Path 185" d="M448.423,403.049a7.2,7.2,0,0,1,2.275-5.689,9.171,9.171,0,0,1,6.3-2.015,10.337,10.337,0,0,1,4.125.7,2.274,2.274,0,0,1,1.59,2.136,2.549,2.549,0,0,1-.381,1.317,2.655,2.655,0,0,1-.624.8,11.314,11.314,0,0,0-1.691-.6,8.623,8.623,0,0,0-2.294-.278q-4.711,0-4.712,4.949v11.577h-4.588Z" transform="translate(80.007 9.284)" fill="#fff"/>
    <path id="Path_186" data-name="Path 186" d="M459.758,405q.926.042,1.772.042h1.688a18.6,18.6,0,0,0,3.582-.281,7.32,7.32,0,0,0,2.137-.719,2.259,2.259,0,0,0,1-1,2.888,2.888,0,0,0,.241-1.16,2.5,2.5,0,0,0-1.228-2.275,5.7,5.7,0,0,0-3.037-.758,6.2,6.2,0,0,0-2.617.52,5.618,5.618,0,0,0-1.892,1.378,6.234,6.234,0,0,0-1.188,1.976,7.086,7.086,0,0,0-.463,2.275m14.13,9.462c-.217.135-.552.32-1.01.559a10.344,10.344,0,0,1-1.709.68,19.576,19.576,0,0,1-2.376.559,17.128,17.128,0,0,1-2.958.239,12.712,12.712,0,0,1-4.2-.68,9.794,9.794,0,0,1-3.423-2.015,9.486,9.486,0,0,1-2.315-3.275,12.087,12.087,0,0,1-.016-8.822,9.949,9.949,0,0,1,2.292-3.393,10.36,10.36,0,0,1,3.463-2.2,11.87,11.87,0,0,1,4.366-.777,11.657,11.657,0,0,1,3.7.538,8.553,8.553,0,0,1,2.717,1.438,6.087,6.087,0,0,1,1.712,7.185,4.623,4.623,0,0,1-1.854,1.957,11.033,11.033,0,0,1-3.582,1.276,29.412,29.412,0,0,1-5.715.459c-.538,0-1.041,0-1.508-.019s-.975-.035-1.51-.06a4.95,4.95,0,0,0,1.995,3.293,7.789,7.789,0,0,0,4.768,1.257,11.11,11.11,0,0,0,4.728-1.037c.337-.16.585-.281.746-.359Z" transform="translate(88.878 9.284)" fill="#fff"/>
    <path id="Path_187" data-name="Path 187" d="M469.244,405q.926.042,1.77.042h1.691a18.6,18.6,0,0,0,3.582-.281,7.252,7.252,0,0,0,2.135-.719,2.242,2.242,0,0,0,1.006-1,2.889,2.889,0,0,0,.241-1.16,2.5,2.5,0,0,0-1.228-2.275,5.7,5.7,0,0,0-3.037-.758,6.2,6.2,0,0,0-2.617.52,5.617,5.617,0,0,0-1.892,1.378,6.232,6.232,0,0,0-1.188,1.976,7.023,7.023,0,0,0-.463,2.275m14.128,9.462q-.323.2-1.005.559a10.472,10.472,0,0,1-1.712.68,19.577,19.577,0,0,1-2.376.559,17.13,17.13,0,0,1-2.958.239,12.736,12.736,0,0,1-4.207-.68,9.825,9.825,0,0,1-3.421-2.015,9.487,9.487,0,0,1-2.315-3.275,11.025,11.025,0,0,1-.844-4.45,11.2,11.2,0,0,1,.825-4.371,9.989,9.989,0,0,1,2.294-3.393,10.373,10.373,0,0,1,3.461-2.2,11.891,11.891,0,0,1,4.368-.777,11.656,11.656,0,0,1,3.7.538,8.576,8.576,0,0,1,2.717,1.438,6.09,6.09,0,0,1,1.709,7.185,4.6,4.6,0,0,1-1.852,1.957,11.052,11.052,0,0,1-3.582,1.276,29.4,29.4,0,0,1-5.715.459c-.538,0-1.04,0-1.508-.019s-.975-.035-1.511-.06a4.955,4.955,0,0,0,1.992,3.293,7.8,7.8,0,0,0,4.77,1.257,10.662,10.662,0,0,0,1.931-.16,11.205,11.205,0,0,0,2.8-.877c.337-.16.585-.281.746-.359Z" transform="translate(101.57 9.284)" fill="#fff"/>
    <path id="Path_188" data-name="Path 188" d="M474.381,403.049a7.2,7.2,0,0,1,2.275-5.689,9.171,9.171,0,0,1,6.3-2.015,10.336,10.336,0,0,1,4.125.7,2.274,2.274,0,0,1,1.59,2.136,2.53,2.53,0,0,1-.383,1.317,2.661,2.661,0,0,1-.622.8,11.314,11.314,0,0,0-1.691-.6,8.622,8.622,0,0,0-2.294-.278q-4.711,0-4.712,4.949v11.577h-4.588Z" transform="translate(114.747 9.284)" fill="#fff"/>
    <path id="Path_189" data-name="Path 189" d="M483.377,413.946a11,11,0,0,0,1.328.779,17.152,17.152,0,0,0,2.193.918,20.955,20.955,0,0,0,2.979.777,19.393,19.393,0,0,0,3.643.32q3.5,0,5.011-1.018a3.287,3.287,0,0,0,1.508-2.894,3.24,3.24,0,0,0-.341-1.556,3.123,3.123,0,0,0-1.005-1.1,5.6,5.6,0,0,0-1.611-.738,18.318,18.318,0,0,0-2.154-.48l-4.426-.8a18.7,18.7,0,0,1-3.26-.839,10.138,10.138,0,0,1-2.778-1.475,6.953,6.953,0,0,1-1.931-2.256,6.642,6.642,0,0,1-.725-3.214,8.307,8.307,0,0,1,.622-3.193,6.638,6.638,0,0,1,1.992-2.634,10.3,10.3,0,0,1,3.463-1.776,17.064,17.064,0,0,1,5.072-.659,26.041,26.041,0,0,1,3.783.239,19.874,19.874,0,0,1,2.736.58,10.407,10.407,0,0,1,1.812.7c.456.239.79.427,1.008.559a4.645,4.645,0,0,1,1.045.958,1.9,1.9,0,0,1,.4,1.2,2.824,2.824,0,0,1-.564,1.7,4.461,4.461,0,0,1-1.045,1.1,5.812,5.812,0,0,0-1.148-.9,10.9,10.9,0,0,0-1.931-.937,17.728,17.728,0,0,0-2.677-.758,16.322,16.322,0,0,0-3.342-.32A13.856,13.856,0,0,0,490,396.5a5.637,5.637,0,0,0-1.952.777,2.978,2.978,0,0,0-1.048,1.2,3.723,3.723,0,0,0-.323,1.577,2.773,2.773,0,0,0,1.188,2.377,10.276,10.276,0,0,0,3.966,1.378l4.508.837a14.471,14.471,0,0,1,6.6,2.616,6.4,6.4,0,0,1,2.214,5.248,7.671,7.671,0,0,1-.765,3.453,7.556,7.556,0,0,1-2.235,2.655,10.6,10.6,0,0,1-3.662,1.716,19.281,19.281,0,0,1-5.053.6,23.968,23.968,0,0,1-4.426-.378,25.693,25.693,0,0,1-3.582-.918,18.238,18.238,0,0,1-2.617-1.1c-.7-.373-1.207-.666-1.529-.879Z" transform="translate(123.985 5.015)" fill="#fff"/>
    <path id="Path_190" data-name="Path 190" d="M511.412,414.506a9.665,9.665,0,0,1-1.188.661,13.32,13.32,0,0,1-1.609.638,14.44,14.44,0,0,1-2.053.5,15.584,15.584,0,0,1-2.6.2,12.968,12.968,0,0,1-4.225-.68,10.012,10.012,0,0,1-3.461-2.015,9.536,9.536,0,0,1-2.355-3.293,11.047,11.047,0,0,1-.865-4.513,11.576,11.576,0,0,1,.844-4.55,9.459,9.459,0,0,1,2.333-3.353,10.025,10.025,0,0,1,3.524-2.057,13.387,13.387,0,0,1,4.366-.7,15.357,15.357,0,0,1,3.363.318,8.845,8.845,0,0,1,2.254.8,3.387,3.387,0,0,1,1.246,1.078,2.2,2.2,0,0,1,.384,1.2,2.311,2.311,0,0,1-.545,1.475,5.815,5.815,0,0,1-1.024,1.039,7.846,7.846,0,0,0-2.1-1.3,8.229,8.229,0,0,0-3.381-.617,7.958,7.958,0,0,0-2.556.4,5.521,5.521,0,0,0-2.053,1.218,5.78,5.78,0,0,0-1.368,2.036,8.7,8.7,0,0,0,.021,5.888,5.443,5.443,0,0,0,1.447,2.036,6,6,0,0,0,2.135,1.178,8.686,8.686,0,0,0,2.617.378,8.158,8.158,0,0,0,3.238-.538,15.451,15.451,0,0,0,1.672-.819Z" transform="translate(139.744 9.284)" fill="#fff"/>
    <path id="Path_191" data-name="Path 191" d="M512.649,412.472a6.4,6.4,0,0,0,2.535-.5,5.737,5.737,0,0,0,1.992-1.4,6.566,6.566,0,0,0,1.288-2.076,6.976,6.976,0,0,0,.463-2.574,7.3,7.3,0,0,0-.463-2.616,6.27,6.27,0,0,0-1.288-2.1,5.875,5.875,0,0,0-1.992-1.378,6.745,6.745,0,0,0-5.09,0,5.939,5.939,0,0,0-1.974,1.378,6.307,6.307,0,0,0-1.288,2.1,7.3,7.3,0,0,0-.463,2.616,6.975,6.975,0,0,0,.463,2.574,6.608,6.608,0,0,0,1.288,2.076,5.8,5.8,0,0,0,1.974,1.4,6.356,6.356,0,0,0,2.556.5m0-17.127a11.876,11.876,0,0,1,4.368.8,10.765,10.765,0,0,1,3.521,2.217,10.221,10.221,0,0,1,2.334,3.354,10.8,10.8,0,0,1,0,8.381,10.222,10.222,0,0,1-2.334,3.354,11,11,0,0,1-3.521,2.236,12.061,12.061,0,0,1-8.736,0,10.977,10.977,0,0,1-3.522-2.236,10.151,10.151,0,0,1-2.334-3.354,10.8,10.8,0,0,1,0-8.381,10.15,10.15,0,0,1,2.334-3.354,10.741,10.741,0,0,1,3.522-2.217,11.866,11.866,0,0,1,4.368-.8" transform="translate(151.146 9.284)" fill="#fff"/>
    <path id="Path_192" data-name="Path 192" d="M523.279,412.431a6.259,6.259,0,0,0,2.516-.5,5.93,5.93,0,0,0,1.971-1.378,6.065,6.065,0,0,0,1.27-2.076,7.434,7.434,0,0,0,.442-2.6,7.153,7.153,0,0,0-.442-2.535,5.893,5.893,0,0,0-1.27-2.036,6.01,6.01,0,0,0-1.971-1.357,6.221,6.221,0,0,0-2.516-.5,6.455,6.455,0,0,0-2.516.48,5.807,5.807,0,0,0-3.259,3.333,7.562,7.562,0,0,0,0,5.211,6.523,6.523,0,0,0,1.267,2.076,5.736,5.736,0,0,0,1.952,1.378,6.354,6.354,0,0,0,2.556.5m-10.786-5.589a13.91,13.91,0,0,1,.8-4.93,10.05,10.05,0,0,1,2.254-3.592,9.53,9.53,0,0,1,3.5-2.217,13.085,13.085,0,0,1,4.548-.758,10.949,10.949,0,0,1,4.228.8,10.506,10.506,0,0,1,3.36,2.194,9.934,9.934,0,0,1,2.233,3.353,11,11,0,0,1,.8,4.232,11.193,11.193,0,0,1-.783,4.251,9.833,9.833,0,0,1-5.434,5.51,10.527,10.527,0,0,1-4.085.777,9.051,9.051,0,0,1-4.066-.877,7.929,7.929,0,0,1-2.778-2.157v10.5h-4.588Z" transform="translate(165.751 9.283)" fill="#fff"/>
    <path id="Path_193" data-name="Path 193" d="M527.805,405c.618.028,1.209.042,1.77.042h1.69a18.625,18.625,0,0,0,3.585-.281,7.285,7.285,0,0,0,2.133-.719,2.253,2.253,0,0,0,1.005-1,2.888,2.888,0,0,0,.241-1.16A2.5,2.5,0,0,0,537,399.615a5.7,5.7,0,0,0-3.037-.758,6.2,6.2,0,0,0-2.617.52,5.641,5.641,0,0,0-1.892,1.378,6.323,6.323,0,0,0-1.188,1.976,7.025,7.025,0,0,0-.463,2.275m14.128,9.462q-.323.2-1.005.559a10.382,10.382,0,0,1-1.712.68,19.576,19.576,0,0,1-2.376.559,17.128,17.128,0,0,1-2.958.239,12.736,12.736,0,0,1-4.207-.68,9.827,9.827,0,0,1-3.421-2.015,9.478,9.478,0,0,1-2.313-3.275,10.985,10.985,0,0,1-.846-4.45,11.246,11.246,0,0,1,.825-4.371,9.988,9.988,0,0,1,2.294-3.393,10.373,10.373,0,0,1,3.461-2.2,11.9,11.9,0,0,1,4.368-.777,11.656,11.656,0,0,1,3.7.538,8.577,8.577,0,0,1,2.717,1.438,6.09,6.09,0,0,1,1.709,7.185,4.611,4.611,0,0,1-1.85,1.957,11.093,11.093,0,0,1-3.582,1.276,29.436,29.436,0,0,1-5.717.459c-.538,0-1.041,0-1.508-.019s-.973-.035-1.511-.06A4.956,4.956,0,0,0,530,411.412a7.8,7.8,0,0,0,4.77,1.257,10.977,10.977,0,0,0,3.521-.559,10.953,10.953,0,0,0,1.209-.478c.334-.16.582-.281.744-.359Z" transform="translate(179.942 9.284)" fill="#fff"/>
    <path id="Path_194" data-name="Path 194" d="M435.61,411.126v9.6h-1.8v-4.114h-5v4.114h-1.8v-9.6h1.8v3.963h5v-3.963Z" transform="translate(51.353 30.102)" fill="#fff"/>
    <path id="Path_195" data-name="Path 195" d="M440.119,416a3.4,3.4,0,1,0-3.4,3.372,3.284,3.284,0,0,0,3.4-3.372m-8.612,0a5.22,5.22,0,1,1,5.212,4.937A4.936,4.936,0,0,1,431.507,416" transform="translate(57.369 30.025)" fill="#fff"/>
    <path id="Path_196" data-name="Path 196" d="M436.435,419.788l.622-1.385a5.39,5.39,0,0,0,3.194,1.055c1.506,0,2.142-.534,2.142-1.248,0-2.071-5.75-.712-5.75-4.277,0-1.549,1.244-2.866,3.9-2.866a6.162,6.162,0,0,1,3.22.849L443.2,413.3a5.409,5.409,0,0,0-2.668-.756c-1.494,0-2.1.577-2.1,1.3,0,2.043,5.738.712,5.738,4.237,0,1.535-1.258,2.853-3.912,2.853a6.265,6.265,0,0,1-3.816-1.153" transform="translate(63.964 30.025)" fill="#fff"/>
    <path id="Path_197" data-name="Path 197" d="M446.8,414.541c0-1.206-.816-1.906-2.392-1.906h-2.1v3.813h2.1c1.576,0,2.392-.7,2.392-1.906m1.81,0c0,2.113-1.576,3.414-4.12,3.414H442.3v2.769h-1.8v-9.6h3.98c2.544,0,4.12,1.289,4.12,3.414" transform="translate(69.411 30.103)" fill="#fff"/>
    <rect id="Rectangle_72" data-name="Rectangle 72" width="1.798" height="9.599" transform="translate(519.818 441.227)" fill="#fff"/>
    <path id="Path_198" data-name="Path 198" d="M449.3,412.634h-3.208v-1.508h8.212v1.508H451.1v8.089h-1.8Z" transform="translate(76.891 30.102)" fill="#fff"/>
    <path id="Path_199" data-name="Path 199" d="M456.446,417.1l-1.826-4.2-1.81,4.2Zm.594,1.4H452.2l-.954,2.222H449.4l4.354-9.6h1.77l4.368,9.6h-1.88Z" transform="translate(81.31 30.101)" fill="#fff"/>
    <path id="Path_200" data-name="Path 200" d="M454.411,411.126h1.8v8.089h5.058v1.51h-6.856Z" transform="translate(88.022 30.102)" fill="#fff"/>
    <rect id="Rectangle_73" data-name="Rectangle 73" width="1.798" height="9.599" transform="translate(550.719 441.227)" fill="#fff"/>
    <path id="Path_201" data-name="Path 201" d="M462.518,412.634h-3.208v-1.508h8.212v1.508h-3.206v8.089h-1.8Z" transform="translate(94.577 30.102)" fill="#fff"/>
    <path id="Path_202" data-name="Path 202" d="M468.753,417.338v3.386h-1.8v-3.358l-3.8-6.239h1.922l2.834,4.675,2.862-4.675h1.77Z" transform="translate(99.72 30.102)" fill="#fff"/>
    <rect id="Rectangle_74" data-name="Rectangle 74" width="1.59" height="12.832" transform="translate(577.256 440.654)" fill="#fff"/>
    <path id="Path_203" data-name="Path 203" d="M472.73,411.126h1.8v8.089h5.058v1.51H472.73Z" transform="translate(112.537 30.102)" fill="#fff"/>
    <path id="Path_204" data-name="Path 204" d="M483.531,419.23v1.494h-7.258v-9.6h7.064v1.493h-5.266v2.5h4.672v1.468h-4.672v2.646Z" transform="translate(117.279 30.102)" fill="#fff"/>
    <rect id="Rectangle_75" data-name="Rectangle 75" width="1.798" height="9.599" transform="translate(602.819 441.227)" fill="#fff"/>
    <path id="Path_205" data-name="Path 205" d="M481.775,419.788l.622-1.385a5.388,5.388,0,0,0,3.192,1.055c1.508,0,2.144-.534,2.144-1.248,0-2.071-5.75-.712-5.75-4.277,0-1.549,1.244-2.866,3.9-2.866a6.168,6.168,0,0,1,3.22.849l-.566,1.387a5.416,5.416,0,0,0-2.67-.756c-1.492,0-2.1.577-2.1,1.3,0,2.043,5.736.712,5.736,4.237,0,1.535-1.256,2.853-3.912,2.853a6.263,6.263,0,0,1-3.814-1.153" transform="translate(124.642 30.025)" fill="#fff"/>
    <path id="Path_206" data-name="Path 206" d="M485.808,416.542v-5.415h1.8v5.348c0,1.974.9,2.822,2.46,2.822s2.448-.849,2.448-2.822v-5.348h1.768v5.415c0,2.8-1.588,4.321-4.23,4.321s-4.244-1.524-4.244-4.321" transform="translate(130.04 30.103)" fill="#fff"/>
    <path id="Path_207" data-name="Path 207" d="M494.411,412.636h-2.1v3.824h2.1c1.576,0,2.39-.712,2.39-1.918s-.814-1.906-2.39-1.906m2.432,8.089-1.976-2.811a3.4,3.4,0,0,1-.374.014h-2.184v2.8h-1.8v-9.6h3.982c2.544,0,4.12,1.289,4.12,3.416a3.068,3.068,0,0,1-2.06,3.029l2.226,3.154Z" transform="translate(136.334 30.101)" fill="#fff"/>
    <path id="Path_208" data-name="Path 208" d="M502.093,419.23v1.494h-7.258v-9.6H501.9v1.493h-5.266v2.5h4.672v1.468h-4.672v2.646Z" transform="translate(142.121 30.102)" fill="#fff"/>
    <rect id="Rectangle_76" data-name="Rectangle 76" width="1.59" height="12.832" transform="translate(650.041 440.654)" fill="#fff"/>
    <path id="Path_209" data-name="Path 209" d="M506.532,412.634h-3.208v-1.508h8.212v1.508h-3.208v8.089h-1.8Z" transform="translate(153.481 30.102)" fill="#fff"/>
    <path id="Path_210" data-name="Path 210" d="M515.675,416a3.4,3.4,0,1,0-3.4,3.372,3.283,3.283,0,0,0,3.4-3.372m-8.612,0a5.22,5.22,0,1,1,5.212,4.937A4.936,4.936,0,0,1,507.063,416" transform="translate(158.485 30.025)" fill="#fff"/>
    <path id="Path_211" data-name="Path 211" d="M512.3,416.542v-5.415h1.8v5.348c0,1.974.9,2.822,2.46,2.822s2.446-.849,2.446-2.822v-5.348h1.77v5.415c0,2.8-1.59,4.321-4.23,4.321s-4.244-1.524-4.244-4.321" transform="translate(165.499 30.103)" fill="#fff"/>
    <path id="Path_212" data-name="Path 212" d="M520.905,412.636h-2.1v3.824h2.1c1.576,0,2.392-.712,2.392-1.918s-.816-1.906-2.392-1.906m2.432,8.089-1.976-2.811a3.375,3.375,0,0,1-.374.014H518.8v2.8h-1.8v-9.6h3.98c2.544,0,4.12,1.289,4.12,3.416a3.068,3.068,0,0,1-2.06,3.029l2.226,3.154Z" transform="translate(171.793 30.101)" fill="#fff"/>
    <rect id="Rectangle_77" data-name="Rectangle 77" width="1.798" height="9.599" transform="translate(698.909 441.227)" fill="#fff"/>
    <path id="Path_213" data-name="Path 213" d="M522.869,419.788l.622-1.385a5.388,5.388,0,0,0,3.192,1.055c1.508,0,2.144-.534,2.144-1.248,0-2.071-5.75-.712-5.75-4.277,0-1.549,1.242-2.866,3.9-2.866a6.162,6.162,0,0,1,3.22.849l-.566,1.387a5.415,5.415,0,0,0-2.668-.756c-1.492,0-2.1.577-2.1,1.3,0,2.043,5.736.712,5.736,4.237,0,1.535-1.258,2.853-3.914,2.853a6.263,6.263,0,0,1-3.814-1.153" transform="translate(179.638 30.025)" fill="#fff"/>
    <path id="Path_214" data-name="Path 214" d="M535.828,420.725l-.014-6.361-3.18,5.264h-.8l-3.178-5.183v6.28h-1.716v-9.6h1.478l3.844,6.364,3.776-6.364h1.478l.014,9.6Z" transform="translate(185.084 30.101)" fill="#fff"/>
  </g>
</svg>
